<?xml version="1.0" standalone="no"?><!DOCTYPE svg PUBLIC "-//W3C//DTD SVG 1.1//EN" "http://www.w3.org/Graphics/SVG/1.1/DTD/svg11.dtd"><svg t="1756454092927" class="icon" viewBox="0 0 1054 1024" version="1.1" xmlns="http://www.w3.org/2000/svg" p-id="12077" xmlns:xlink="http://www.w3.org/1999/xlink" width="205.859375" height="200"><path d="M878.103293 317.737895c-11.867485 0-21.577246-9.709761-21.577246-21.577246V182.168058c0-11.867485-9.709761-21.577246-21.577247-21.577246h-91.547939c-11.867485 0-21.577246-9.709761-21.577247-21.577246V47.469941c0-11.867485-9.709761-21.577246-21.577246-21.577246H354.281119c-11.867485 0-21.577246 9.709761-21.577246 21.577246v91.543625c0 11.867485-9.709761 21.577246-21.577246 21.577246H219.583003c-11.867485 0-21.577246 9.709761-21.577246 21.577246v113.992591c0 11.867485-9.709761 21.577246-21.577246 21.577246H47.469941c-11.867485 0-21.577246 9.709761-21.577246 21.577247v585.429526c0 11.867485 9.709761 21.577246 21.577246 21.577246h959.578974c11.867485 0 21.577246-9.709761 21.577247-21.577246V339.315142c0-11.867485-9.709761-21.577246-21.577247-21.577247h-128.945622z" fill="#C7C7DB" p-id="12078"></path><path d="M848.762553 418.740985h34.523594v414.283125h-34.523594zM171.237025 418.740985h34.523594v414.283125h-34.523594zM684.775483 418.740985h34.523594v414.283125h-34.523594zM516.472963 418.740985h34.523594v414.283125h-34.523594zM335.224096 418.740985h34.523594v414.283125h-34.523594z" fill="#6E6E96" p-id="12079"></path><path d="M1002.733466 343.630591h-128.945623c-11.867485 0-21.577246-9.709761-21.577246-21.577246v60.416289c0 11.867485 9.709761 21.577246 21.577246 21.577246h128.945623c11.867485 0 21.577246 9.709761 21.577246 21.577246v-60.416289c0-11.867485-9.709761-21.577246-21.577246-21.577246zM717.508165 73.362637c0-11.867485-9.709761-21.577246-21.577246-21.577246H349.96567c-11.867485 0-21.577246 9.709761-21.577246 21.577246v60.416289c0-11.867485 9.709761-21.577246 21.577246-21.577246h345.965249c11.867485 0 21.577246 9.709761 21.577246 21.577246V73.362637z m134.702432 134.698116c0-11.867485-9.709761-21.577246-21.577246-21.577246h-91.54794c-11.867485 0-21.577246-9.709761-21.577246-21.577246v60.416289c0 11.867485 9.709761 21.577246 21.577246 21.577246h91.54794c11.867485 0 21.577246 9.709761 21.577246 21.577247v-60.41629zM172.113061 343.630591H43.154492c-11.867485 0-21.577246 9.709761-21.577246 21.577246v60.416289c0-11.867485 9.709761-21.577246 21.577246-21.577246h128.958569c11.867485 0 21.577246-9.709761 21.577247-21.577246v-60.416289c0 11.867485-9.709761 21.577246-21.577247 21.577246z m134.698117-157.147084H215.267554c-11.867485 0-21.577246 9.709761-21.577246 21.577246v60.41629c0-11.867485 9.709761-21.577246 21.577246-21.577247h91.552255c11.867485 0 21.577246-9.709761 21.577246-21.577246v-60.416289c-0.008631 11.867485-9.718392 21.577246-21.585877 21.577246z" fill="#6E6E96" opacity=".25" p-id="12080"></path><path d="M21.577246 889.603965h1002.733466v48.095681H21.577246z" fill="#FFFFFF" opacity=".25" p-id="12081"></path><path d="M1002.733466 976.530059H43.154492c-21.413259 0-38.839043-17.421469-38.839043-38.839043V352.261489c0-21.413259 17.425784-38.839043 38.839043-38.839043h128.958569c2.338973 0 4.315449-1.976476 4.31545-4.315449V195.114406c0-21.413259 17.425784-38.839043 38.839043-38.839043h91.547939c2.338973 0 4.315449-1.976476 4.31545-4.315449V60.416289c0-21.413259 17.425784-38.839043 38.839043-38.839043h345.965249c21.417574 0 38.839043 17.425784 38.839043 38.839043v91.543625c0 2.338973 1.976476 4.315449 4.315449 4.315449h91.54794c21.417574 0 38.839043 17.425784 38.839043 38.839043v113.992591c0 2.338973 1.976476 4.315449 4.315449 4.315449h128.945623c21.417574 0 38.839043 17.425784 38.839043 38.839043v585.429527c-0.004315 21.417574-17.425784 38.839043-38.843359 38.839043zM43.154492 347.94604c-2.338973 0-4.315449 1.976476-4.315449 4.315449v585.429527c0 2.338973 1.976476 4.315449 4.315449 4.315449h959.578974c2.338973 0 4.315449-1.976476 4.315449-4.315449V352.261489c0-2.338973-1.976476-4.315449-4.315449-4.315449h-128.945623c-21.417574 0-38.839043-17.425784-38.839043-38.839043V195.114406c0-2.338973-1.976476-4.315449-4.315449-4.315449h-91.54794c-21.417574 0-38.839043-17.425784-38.839043-38.839043V60.416289c0-2.338973-1.976476-4.315449-4.315449-4.315449H349.96567c-2.338973 0-4.315449 1.976476-4.315449 4.315449v91.543625c0 21.413259-17.425784 38.839043-38.839043 38.839043H215.267554c-2.338973 0-4.315449 1.976476-4.31545 4.315449v113.992591c0 21.413259-17.425784 38.839043-38.839043 38.839043H43.154492z" fill="#6E6E96" p-id="12082"></path></svg>